#!OML:ASF H:\Terrain\Patient Classification 1\Takeo\Monday\TakeoMonday.ASF
:FULLY-SPECIFIED
:DEGREES
464
root 9.58829 17.1431 0.166688 -16.282 -47.082 12.2244
lowerback 7.65294 -1.51992 -2.12247
upperback 4.08847 -2.21349 2.32423
thorax 0.112862 -1.1974 3.75383
lowerneck -12.4022 7.33846 1.48121
upperneck -3.02485 9.567 -7.8328
head 1.65377 4.5214 -2.25014
rclavicle 7.15625e-014 -4.6118e-014
rhumerus -23.9223 19.0294 -75.654
rradius 121.431
rwrist -1.03807
rhand -27.1661 28.0047
rfingers 7.12502
rthumb -0.580488 -1.97424
lclavicle 7.15625e-014 -4.6118e-014
lhumerus -33.3629 -17.2652 100.529
lradius 113.469
lwrist 20.5835
lhand -27.0454 2.52973
lfingers 7.12502
lthumb -0.463954 32.509
rfemur -1.58775 5.36487 11.1431
rtibia 39.423
rfoot -25.814 -12.401
rtoes -14.442
lfemur -6.82521 21.1333 -23.1171
ltibia 37.9934
lfoot -20.4497 20.1696
ltoes 5.88014
465
root 9.59217 17.148 0.176527 -15.5653 -46.713 11.3794
lowerback 7.51236 -1.43294 -1.79913
upperback 4.22019 -2.07856 2.36683
thorax 0.304977 -1.13044 3.59882
lowerneck -12.9952 6.98138 1.18679
upperneck -2.82417 9.13632 -7.5764
head 1.77157 4.29713 -2.1228
rclavicle 5.46658e-014 -1.27222e-014
rhumerus -21.6995 19.0431 -74.703
rradius 120.774
rwrist -0.951354
rhand -26.6959 27.4402
rfingers 7.12502
rthumb -0.12636 -2.53946
lclavicle 5.46658e-014 -1.27222e-014
lhumerus -33.1252 -17.4537 100.544
lradius 113.448
lwrist 20.738
lhand -27.4412 2.52286
lfingers 7.12502
lthumb -0.846198 32.5009
rfemur -1.42316 5.10982 11.6935
rtibia 39.1233
rfoot -25.5878 -12.9996
rtoes -15.7319
lfemur -6.96733 20.9122 -22.6339
ltibia 38.0935
lfoot -20.3557 19.8148
ltoes 7.19548
466
root 9.59928 17.1523 0.181941 -15.0412 -46.3913 10.6583
lowerback 7.62091 -1.30327 -1.55476
upperback 4.27098 -1.89205 2.34308
thorax 0.273877 -1.03277 3.42632
lowerneck -13.2893 6.56606 0.806745
upperneck -2.72373 8.63083 -7.05628
head 1.78275 4.05452 -1.91089
rclavicle 6.42074e-014 -1.90833e-014
rhumerus -19.8622 18.8619 -74.0211
rradius 120.206
rwrist -0.393782
rhand -26.0785 26.5807
rfingers 7.12502
rthumb 0.469933 -3.39855
lclavicle 6.42074e-014 -1.90833e-014
lhumerus -32.9769 -17.6913 100.429
lradius 113.213
lwrist 21.0536
lhand -28.1538 1.12993
lfingers 7.12502
lthumb -1.53443 31.1042
rfemur -1.20305 4.95978 12.186
rtibia 38.8541
rfoot -25.4587 -13.2119
rtoes -15.6776
lfemur -6.98413 20.7726 -22.1901
ltibia 38.1339
lfoot -20.2002 19.4713
ltoes 7.47877
467
root 9.6079 17.1612 0.186477 -14.5204 -46.0201 10.1997
lowerback 7.56202 -1.16516 -1.54196
upperback 4.24277 -1.70467 2.2859
thorax 0.261398 -0.936341 3.34565
lowerneck -13.0359 6.2228 0.276512
upperneck -3.06057 8.21233 -6.51174
head 1.55154 3.87833 -1.68103
rclavicle 4.11484e-014 -2.38542e-014
rhumerus -18.0566 18.6682 -73.1739
rradius 119.721
rwrist -0.206557
rhand -25.5923 25.9123
rfingers 7.12502
rthumb 0.939491 -4.06533
lclavicle 4.11484e-014 -2.38542e-014
lhumerus -32.9759 -17.8359 100.396
lradius 113.087
lwrist 21.0322
lhand -28.3667 0.296195
lfingers 7.12502
lthumb -1.74004 30.2688
rfemur -1.19736 4.65537 12.4025
rtibia 38.584
rfoot -25.2486 -13.1646
rtoes -15.2182
lfemur -7.24153 20.5661 -22.0447
ltibia 38.1711
lfoot -20.1454 19.1588
ltoes 8.26519
468
root 9.61081 17.1783 0.195941 -14.1825 -45.3244 9.99964
lowerback 7.41711 -1.09139 -1.76204
upperback 4.22256 -1.61634 2.10637
thorax 0.315187 -0.892589 3.27399
lowerneck -12.7157 5.91611 -0.17938
upperneck -3.44399 7.82969 -5.89571
head 1.30203 3.72269 -1.44214
rclavicle 7.53394e-014 -6.36111e-015
rhumerus -16.3067 18.6845 -72.0868
rradius 119.233
rwrist -0.378264
rhand -25.1802 25.8056
rfingers 7.12502
rthumb 1.33751 -4.16991
lclavicle 7.53394e-014 -6.36111e-015
lhumerus -33.0322 -17.9145 100.274
lradius 113.229
lwrist 20.5864
lhand -27.6842 1.42683
lfingers 7.12502
lthumb -1.08088 31.4038
rfemur -1.04688 4.15772 12.3557
rtibia 38.2453
rfoot -25.0492 -13.1244
rtoes -14.7877
lfemur -7.62758 20.3528 -22.1948
ltibia 38.2598
lfoot -19.3827 19.306
ltoes 6.41779
469
root 9.60885 17.1896 0.206121 -13.8633 -44.5572 9.74099
lowerback 7.35459 -1.09098 -2.12531
upperback 4.17166 -1.63447 2.05195
thorax 0.307944 -0.90531 3.42286
lowerneck -12.7125 5.58598 -0.680653
upperneck -3.47246 7.4496 -5.33665
head 1.23131 3.55295 -1.20173
rclavicle 5.06901e-014 1.59028e-015
rhumerus -14.3842 18.9531 -70.8639
rradius 118.584
rwrist -0.537565
rhand -24.251 25.7856
rfingers 7.12502
rthumb 2.23495 -4.18245
lclavicle 5.06901e-014 1.59028e-015
lhumerus -33.0846 -17.6736 100.229
lradius 113.416
lwrist 20.509
lhand -27.074 2.49569
lfingers 7.12502
lthumb -0.491563 32.4749
rfemur -0.768772 3.70175 12.3907
rtibia 37.8975
rfoot -24.9835 -13.2353
rtoes -14.9318
lfemur -7.88237 20.0906 -22.2506
ltibia 38.337
lfoot -18.6294 19.189
ltoes 4.17954
470
root 9.61211 17.198 0.214367 -13.1208 -43.9067 8.88826
lowerback 7.28538 -1.06 -1.91043
upperback 4.15725 -1.57774 2.11774
thorax 0.322529 -0.873466 3.36443
lowerneck -12.9203 5.23722 -0.927927
upperneck -3.36787 7.02768 -5.18264
head 1.27459 3.34346 -1.12748
rclavicle 5.30755e-014 4.77083e-015
rhumerus -12.459 18.8727 -69.6329
rradius 118.019
rwrist -0.976217
rhand -23.9174 25.2976
rfingers 7.12502
rthumb 2.55715 -4.66678
lclavicle 5.30755e-014 4.77083e-015
lhumerus -33.088 -17.6221 100.292
lradius 113.39
lwrist 20.5613
lhand -27.0085 2.41351
lfingers 7.12502
lthumb -0.428309 32.3928
rfemur -0.542934 3.35114 12.9697
rtibia 37.5346
rfoot -24.959 -13.6567
rtoes -15.2029
lfemur -8.12488 19.6796 -21.8052
ltibia 38.4207
lfoot -18.787 18.6551
ltoes 5.14485
